# xmcd
#
# Track frame offsets:
#	150
#	14346
#	26152
#	40856
#	55706
#	68400
#	84606
#	101694
#	115516
#	126660
#	140894
#	173065
#	192292
#	204868
#	224915
#	235496
#	246940
#	257300
#
# Disc length: 3647
#
# Revision: 1
# Processed by: cddbd v1.5.1PL0 Copyright (c) Steve Scherf et al.
# Submitted via: CDex 1.50Beta7
# Normalized: r0:TDELIM( - )
#
DISCID=050e3d12
DTITLE=Best Of Blues - The Golden Collection CD2
DYEAR=2000
DGENRE=Blues
TTITLE0=Eric Clapton - Draggin' My Tail
TTITLE1=john Lee Hooker - Boogie Cillen 2
TTITLE2=Muddy Waters - BabyPlease Don't Go
TTITLE3=Leadbelly - The House Of The Rising Sun (In New Orleans)
TTITLE4=Elmore James - The Sky Is Crying
TTITLE5=B.B.King - It's My Own Fault Baby
TTITLE6=Ike and Tina Turner - I Smell Trouble
TTITLE7=lightning Slim - Good Morning Heartaches
TTITLE8=Canned Heat - Can't Hold On
TTITLE9=johny Winter - Low Down Gal Of Mine
TTITLE10=Santana - Every Day I Have The Blues
TTITLE11=John Mayall - John Lee Boogie
TTITLE12=Jelly Roll Morton - Dead Man Blues
TTITLE13=Etta James - I'd Rather Go Blind
TTITLE14=Ray Charles - I'm Movin' On
TTITLE15=Big Joe Williams - Bye, Bye Baby Blues
TTITLE16=Johnny Winter - Shed So Many Tears
TTITLE17=B.B.King - Outside Help (short version)
EXTD=YEAR: 2000
EXTT0=
EXTT1=
EXTT2=
EXTT3=
EXTT4=
EXTT5=
EXTT6=
EXTT7=
EXTT8=
EXTT9=
EXTT10=
EXTT11=
EXTT12=
EXTT13=
EXTT14=
EXTT15=
EXTT16=
EXTT17=
PLAYORDER=
